<?xml version="1.0" standalone="no"?>
<!DOCTYPE svg PUBLIC "-//W3C//DTD SVG 20010904//EN"
 "http://www.w3.org/TR/2001/REC-SVG-20010904/DTD/svg10.dtd">
<svg version="1.0" xmlns="http://www.w3.org/2000/svg"
 width="16.000000pt" height="16.000000pt" viewBox="0 0 16.000000 16.000000"
 preserveAspectRatio="xMidYMid meet">
<metadata>
Created by potrace 1.11, written by Peter Selinger 2001-2013
</metadata>
<g transform="translate(0.000000,16.000000) scale(0.002286,-0.002286)"
fill="#000000" stroke="none">
<path d="M253 6986 c-102 -32 -176 -97 -222 -196 l-26 -55 -3 -3214 c-2 -2827
0 -3219 13 -3264 40 -134 130 -218 265 -246 42 -9 837 -11 3255 -9 l3200 3 67
33 c77 38 130 92 167 171 l26 56 0 3235 0 3235 -33 67 c-37 77 -90 128 -172
167 l-55 26 -3220 2 c-2643 1 -3228 -1 -3262 -11z m5481 -1181 c80 -8 205 -42
291 -80 195 -87 379 -268 465 -460 133 -297 115 -627 -51 -921 -31 -56 -74
-109 -149 -184 -113 -114 -194 -166 -344 -226 -154 -62 -180 -64 -756 -64
l-520 0 -2 -90 c-1 -49 -2 -132 -2 -182 l-1 -93 509 -3 c387 -2 513 -5 524
-15 9 -6 29 -41 45 -77 29 -65 168 -368 225 -490 480 -1035 602 -1308 602
-1342 0 -33 -42 -68 -80 -68 -27 0 -80 33 -80 50 0 4 -20 50 -44 101 -24 52
-118 256 -209 454 -91 198 -247 538 -347 755 -100 217 -189 412 -197 433 l-15
37 -474 0 -474 0 -2 -881 -3 -881 -24 -19 c-33 -27 -86 -25 -116 6 l-25 24 0
2031 0 2030 -175 0 -175 0 0 -2036 c0 -1528 -3 -2041 -12 -2057 -17 -32 -39
-46 -73 -46 -37 0 -61 17 -75 53 -15 39 -14 4161 1 4204 8 22 20 34 40 39 36
10 1627 8 1723 -2z m-4428 -3 c34 -22 34 -27 34 -2091 l0 -2040 984 1 c541 0
993 -3 1004 -6 44 -14 55 -94 17 -131 l-24 -25 -1314 0 -1314 0 -19 21 c-19
21 -19 72 -22 2109 l-2 2089 24 27 c30 36 86 39 119 6 l22 -23 3 -2034 2
-2035 175 0 175 0 2 2044 3 2044 24 26 c24 26 81 36 107 18z"/>
<path d="M4650 4841 l0 -811 478 0 c262 0 517 5 566 10 321 37 570 243 682
565 26 75 28 91 29 240 0 141 -3 168 -23 229 -92 275 -298 473 -570 549 -74
20 -101 21 -619 25 l-543 3 0 -810z"/>
</g>
</svg>
